<svg width="96" height="96" viewBox="0 0 96 96" fill="none" xmlns="http://www.w3.org/2000/svg">
<path d="M71.9281 74.9C69.1331 71.1995 65.517 68.1985 61.3648 66.1335C57.2125 64.0685 52.6375 62.9958 48.0001 63C43.3626 62.9958 38.7876 64.0685 34.6353 66.1335C30.4831 68.1985 26.867 71.1995 24.0721 74.9M24.0721 74.9C18.6181 70.0488 14.7676 63.6542 13.0313 56.5644C11.2951 49.4745 11.755 42.0244 14.3502 35.2019C16.9454 28.3795 21.5532 22.5071 27.5625 18.3636C33.5718 14.2201 40.6987 12.0012 47.9981 12.0012C55.2974 12.0012 62.4243 14.2201 68.4336 18.3636C74.443 22.5071 79.0507 28.3795 81.6459 35.2019C84.2411 42.0244 84.7011 49.4745 82.9648 56.5644C81.2285 63.6542 77.3781 70.0488 71.9241 74.9C65.3401 80.7727 56.8226 84.0126 48.0001 84C39.1762 84.0136 30.657 80.7737 24.0721 74.9ZM60.0001 39C60.0001 42.1826 58.7358 45.2349 56.4853 47.4853C54.2349 49.7357 51.1827 51 48.0001 51C44.8175 51 41.7652 49.7357 39.5148 47.4853C37.2643 45.2349 36.0001 42.1826 36.0001 39C36.0001 35.8174 37.2643 32.7652 39.5148 30.5147C41.7652 28.2643 44.8175 27 48.0001 27C51.1827 27 54.2349 28.2643 56.4853 30.5147C58.7358 32.7652 60.0001 35.8174 60.0001 39Z" stroke="#223B5D" stroke-width="8" stroke-linecap="round" stroke-linejoin="round"/>
</svg>
